<svg id="svg" version="1.1" xmlns="http://www.w3.org/2000/svg" style="display: block; background: rgb(0, 0, 0);" viewBox="0 0 725 844"><path d="M0 0 C0.97791504 0.00531738 1.95583008 0.01063477 2.96337891 0.01611328 C15.35766479 0.16808419 27.71436345 1.0586931 40.07177734 1.97216797 C43.70973662 2.23792722 47.34855381 2.48252295 50.98828125 2.72265625 C53.17975944 2.87658339 55.37116999 3.03147757 57.5625 3.1875 C59.02018799 3.2810376 59.02018799 3.2810376 60.50732422 3.37646484 C69.7023234 4.07298324 78.50048371 5.72864821 86.61328125 10.21875 C89.63668815 11.59729822 92.72459459 12.34787878 95.9375 13.1875 C102.99752981 15.16913057 107.60951283 16.59036688 111.55078125 22.95703125 C116.16291564 31.70797836 118.26870891 39.6853069 118.25 49.5 C118.24838867 50.44069336 118.24677734 51.38138672 118.24511719 52.35058594 C118.09122862 61.88865964 116.98884868 71.30497838 115.85314941 80.76425171 C114.31962015 93.54517756 113.18999629 106.3220296 112.23550415 119.15875244 C110.23467981 145.95273827 107.43524446 172.6178008 103.875 199.25 C103.76843079 200.04956116 103.66186157 200.84912231 103.55206299 201.6729126 C101.07112774 220.0526525 98.06926273 239.67159935 82.875 252.25 C74.86612855 257.41866464 66.53775516 259.48847246 57.0703125 259.55078125 C56.35357864 259.55647125 55.63684479 259.56216125 54.89839172 259.56802368 C52.59869436 259.58006243 50.29969434 259.57396868 48 259.5625 C47.21166779 259.56001251 46.42333557 259.55752502 45.6111145 259.55496216 C34.07213431 259.49847118 23.1118098 259.04292396 11.875 256.25 C10.89273438 256.02425293 9.91046875 255.79850586 8.8984375 255.56591797 C-24.27247777 247.89168026 -24.27247777 247.89168026 -33.16015625 237.98046875 C-39.60312723 226.65361306 -39.76854941 210.69687637 -40.75 197.9375 C-40.87566071 196.37529352 -41.00172218 194.81311922 -41.12817383 193.25097656 C-41.47503252 188.91834816 -41.80255387 184.58451293 -42.125 180.25 C-42.19992676 179.26402832 -42.27485352 178.27805664 -42.35205078 177.26220703 C-42.72183462 172.2597712 -42.98500545 167.26413817 -43.125 162.25 C-43.14691406 161.5084668 -43.16882813 160.76693359 -43.19140625 160.00292969 C-43.54622857 145.55574773 -42.78268386 131.16310115 -42.04669189 116.74075317 C-41.42915685 104.50041184 -41.03127518 92.27491533 -40.875 80.01953125 C-40.85779404 78.71819244 -40.84058807 77.41685364 -40.82286072 76.07608032 C-40.74216955 69.66496235 -40.68057627 63.25428282 -40.64282227 56.84277344 C-40.54649323 45.91914389 -40.27383862 35.14208008 -38.77734375 24.30859375 C-38.66177628 23.45660904 -38.5462088 22.60462433 -38.42713928 21.7268219 C-37.5982089 16.43032158 -36.43946819 12.29102891 -32.2734375 8.6171875 C-22.11115443 2.15028009 -11.90768451 -0.12126818 0 0 Z M-26.8125 12.375 C-29.90385832 16.21831034 -31.26824605 20.27851934 -31.125 25.25 C-30.64421997 25.71048233 -30.16343994 26.17096466 -29.66809082 26.645401 C-27.80241692 28.58544136 -27.65156046 29.58403805 -27.36914062 32.22827148 C-27.27201782 33.04505875 -27.17489502 33.86184601 -27.0748291 34.7033844 C-26.977948 35.60435349 -26.88106689 36.50532257 -26.78125 37.43359375 C-25.62692962 46.8930985 -24.16940994 56.2728897 -22.53125 65.66015625 C-22.29431843 67.02525252 -22.05742092 68.3903547 -21.82055664 69.75546265 C-21.09261438 73.94182871 -20.35900699 78.12719382 -19.625 82.3125 C-18.77097362 87.18666838 -17.91914497 92.06120944 -17.07244873 96.93665695 C-16.83779567 98.28739256 -16.60265238 99.63804311 -16.36700439 100.9886055 C-14.73156569 110.37754475 -13.24228316 119.77281274 -12.08728027 129.23390198 C-11.64661494 133.70162832 -11.64661494 133.70162832 -9.125 137.25 C-6.91461602 131.458994 -5.9585076 125.52465005 -4.9375 119.4375 C-4.72681885 118.18211426 -4.5161377 116.92672852 -4.29907227 115.63330078 C-1.58723601 98.98306233 0.30343846 82.21065543 2.2878418 65.46166992 C2.56789083 63.10722272 2.84824407 60.75281169 3.12890625 58.3984375 C3.26622665 57.24211319 3.40354706 56.08578888 3.54502869 54.89442444 C4.72589263 45.11650058 6.11532481 35.37309422 7.62757874 25.64096069 C8.60644507 19.11819295 9.11349304 12.84581419 8.875 6.25 C-9.7691436 5.44928985 -9.7691436 5.44928985 -26.8125 12.375 Z M17.875 6.25 C18.35738206 17.8937048 19.46544174 29.43124755 20.77075195 41.01074219 C22.15705362 53.3900034 22.98986285 65.6825401 23.26342773 78.13565063 C23.57126074 91.79114595 24.11822813 105.42469082 24.875 119.0625 C24.91688446 119.8370755 24.95876892 120.611651 25.00192261 121.40969849 C25.12211235 123.61323585 25.24745532 125.81640857 25.375 128.01953125 C25.4471875 129.27354736 25.519375 130.52756348 25.59375 131.81958008 C25.85544484 135.01148481 26.29586077 138.10183533 26.875 141.25 C29.17380103 140.37868076 29.17380103 140.37868076 29.94970703 137.53125 C31.33211611 133.11301808 32.68898398 128.68993768 34 124.25 C34.25433807 123.39573425 34.50867615 122.54146851 34.77072144 121.66131592 C41.60724783 98.4518663 46.47855858 74.7477643 51.52978516 51.1015625 C51.69759145 50.31683752 51.86539774 49.53211254 52.03828907 48.72360802 C52.83189332 45.00973985 53.62154247 41.29513236 54.40220642 37.57852173 C55.82213581 30.85767409 57.34060337 24.19990682 59.23960876 17.59603882 C59.89863329 15.1627394 60.4067784 12.72644537 60.875 10.25 C57.22249068 9.03249689 53.65846911 8.79948415 49.84765625 8.49609375 C49.06233017 8.43092056 48.27700409 8.36574738 47.46788025 8.29859924 C45.80791386 8.16158336 44.14779795 8.02636858 42.48754883 7.89282227 C39.95032725 7.68853281 37.41362799 7.47853692 34.87695312 7.26757812 C33.26304846 7.13507974 31.64911698 7.00290745 30.03515625 6.87109375 C29.2777565 6.80860947 28.52035675 6.74612518 27.74000549 6.68174744 C24.43411592 6.41739899 21.19446928 6.25 17.875 6.25 Z M68.875 13.25 C68.8656543 14.04913818 68.85630859 14.84827637 68.84667969 15.67163086 C68.38943286 48.2011564 66.4171845 80.65247884 64.55938721 113.1247406 C63.94796218 123.83079241 63.3824092 134.53849162 62.875 145.25 C63.535 145.25 64.195 145.25 64.875 145.25 C71.11317481 125.74462182 76.75916109 106.14335926 81.96551514 86.3394165 C82.67764115 83.63883494 83.39766542 80.94038517 84.11754227 78.24186134 C87.9085666 64.01845316 91.5391965 49.76555651 94.8984375 35.43359375 C95.20004791 34.1517067 95.50165833 32.86981964 95.81240845 31.54908752 C96.08491425 30.37071823 96.35742004 29.19234894 96.63818359 27.97827148 C96.87814056 26.94121567 97.11809753 25.90415985 97.36532593 24.8356781 C97.97169651 22.19867789 97.97169651 22.19867789 97.875 19.25 C95.85885072 18.61005123 93.83664434 17.98919219 91.8125 17.375 C90.68714844 17.02695312 89.56179688 16.67890625 88.40234375 16.3203125 C82.04180768 14.6143253 75.40117732 14.03863947 68.875 13.25 Z " transform="translate(336.125,247.75)" style="fill: #FFFFFF;"/><path d="M0 0 C2.75505646 1.53296916 3.88727864 2.55265471 5.875 5.125 C7.03851783 9.44663766 6.67633136 12.34871943 4.75 16.375 C2.0016493 19.67302084 0.5181627 21.02481193 -3.65625 21.8515625 C-8.15237198 22.10887069 -10.71799054 21.67485988 -14.6875 19.4375 C-17.85073091 15.65705331 -19.62570715 12.29130618 -20.25 7.375 C-19.11520632 3.28974276 -17.98847673 1.87850686 -14.5 -0.5 C-9.17788117 -2.3422719 -5.13195145 -2.24640366 0 0 Z M-11.25 4.375 C-11.58 5.695 -11.91 7.015 -12.25 8.375 C-8.62 9.695 -4.99 11.015 -1.25 12.375 C-1.25 10.725 -1.25 9.075 -1.25 7.375 C-4.53889579 4.64991491 -7.03287443 4.01353209 -11.25 4.375 Z " transform="translate(308.25,169.625)" style="fill: #FFFFFF;"/><path d="M0 0 C2.85288479 1.83399736 3.43029596 2.61072795 4.625 5.6875 C5.19311094 10.22500945 5.15859148 14.36756319 3.4375 18.625 C0.51759509 21.94765042 -1.91396439 23.46989895 -6.3125 24.125 C-10.91866486 23.46697645 -13.88395554 21.28807616 -17.0234375 17.91796875 C-19.63058964 13.61541421 -18.98467145 8.53836417 -18.375 3.6875 C-14.03440433 -3.94596134 -7.28485782 -2.83300026 0 0 Z M-11.375 4.6875 C-11.32731597 6.56630872 -11.32731597 6.56630872 -10.375 8.6875 C-6.32972475 11.92715975 -6.32972475 11.92715975 -1.375 12.6875 C-1.82203986 8.20866304 -1.82203986 8.20866304 -4.375 4.6875 C-7.95843976 4.52072718 -7.95843976 4.52072718 -11.375 4.6875 Z " transform="translate(462.375,165.3125)" style="fill: #FFFFFF;"/><path d="M0 0 C32.2518623 29.86095137 33.68190835 75.65439369 35.75 116.5625 C35.80657272 117.64130936 35.80657272 117.64130936 35.86428833 118.74191284 C36.84563256 137.64927771 37.31832254 156.57500007 37.8125 175.5 C37.83457016 176.34357182 37.85664032 177.18714363 37.87937927 178.05627823 C39.60915834 244.44772279 39.60915834 244.44772279 37.46630859 274.71142578 C36.53092727 288.34102719 36.54731001 301.90587223 36.75 315.5625 C56.64266442 305.17410858 69.32185795 286.54769337 76.6875 265.625 C78.28425338 259.67531384 78.31360604 253.44556417 78.5390625 247.3203125 C78.69690444 244.50838748 78.90216994 242.21718099 79.75 239.5625 C78.76 239.2325 77.77 238.9025 76.75 238.5625 C75.67504883 236.41699219 75.67504883 236.41699219 74.70703125 233.609375 C74.35576172 232.59746094 74.00449219 231.58554687 73.64257812 230.54296875 C73.28615234 229.47691406 72.92972656 228.41085937 72.5625 227.3125 C72.01045898 225.73662109 72.01045898 225.73662109 71.44726562 224.12890625 C68.51292739 215.53820916 68.51292739 215.53820916 68.75 210.5625 C71.6457135 209.71529513 73.24232368 209.36909197 76.10253906 210.45874023 C77.2970166 211.15785522 77.2970166 211.15785522 78.515625 211.87109375 C79.85173828 212.62036133 79.85173828 212.62036133 81.21484375 213.38476562 C83.05823095 214.45382679 84.8994178 215.52669188 86.73828125 216.60351562 C92.80262309 219.99343909 96.79448424 221.19417439 103.75 220.5625 C104.02972656 219.69367188 104.30945313 218.82484375 104.59765625 217.9296875 C106.04168185 213.71019575 107.77625094 209.65027841 109.52734375 205.55078125 C110.56691538 203.00997518 111.42552993 200.48974794 112.25 197.875 C112.745 196.781875 113.24 195.68875 113.75 194.5625 C116.4375 193.5625 116.4375 193.5625 118.75 193.5625 C121.12139206 197.11958808 121.42797257 200.17497197 121.875 204.3125 C121.95991699 205.05878662 122.04483398 205.80507324 122.13232422 206.57397461 C122.90289726 213.91767521 122.94329177 221.18519733 122.75 228.5625 C123.71421875 228.59988281 124.6784375 228.63726562 125.671875 228.67578125 C127.56679687 228.77439453 127.56679687 228.77439453 129.5 228.875 C130.75296875 228.93300781 132.0059375 228.99101562 133.296875 229.05078125 C136.78076463 229.56705901 138.22889796 230.1878256 140.75 232.5625 C139.24533581 236.79612036 136.63667612 238.11309674 132.8125 240.25 C131.75160156 240.85199219 130.69070313 241.45398438 129.59765625 242.07421875 C126.75 243.5625 126.75 243.5625 123.75 244.5625 C125.10561417 248.62934251 127.15067414 249.32141031 130.75 251.5625 C136.63888889 255.22916667 136.63888889 255.22916667 137.75 258.5625 C137.42 259.2225 137.09 259.8825 136.75 260.5625 C135.83504761 260.57651855 135.83504761 260.57651855 134.90161133 260.59082031 C132.12110513 260.64471326 129.34224738 260.72832069 126.5625 260.8125 C125.60279297 260.82667969 124.64308594 260.84085937 123.65429688 260.85546875 C117.9130903 261.05412642 115.08595585 261.54074385 110.75 265.5625 C108.07421875 266.171875 108.07421875 266.171875 105.4375 266.3125 C104.55449219 266.36921875 103.67148437 266.4259375 102.76171875 266.484375 C102.09785156 266.51015625 101.43398438 266.5359375 100.75 266.5625 C100.60304688 267.39910156 100.45609375 268.23570312 100.3046875 269.09765625 C97.16445108 285.39440045 90.42542433 298.60319588 81.75 312.5625 C80.97360426 313.84093087 80.19754956 315.11956893 79.421875 316.3984375 C72.05649909 328.37697412 63.41499685 339.22155948 50.66015625 345.67578125 C49.93513916 346.05081787 49.21012207 346.42585449 48.46313477 346.81225586 C47.01431787 347.54889095 45.54981758 348.25563642 44.07006836 348.92797852 C41.99893444 349.97731005 40.4050525 350.93168291 38.75 352.5625 C37.96547536 355.85211621 37.77037001 358.23578563 37.75 361.5625 C37.60206476 363.89759027 37.44631653 366.23219145 37.28515625 368.56640625 C37.11849887 371.41878214 36.96604063 374.2718919 36.8125 377.125 C36.7698703 377.89363373 36.7272406 378.66226746 36.68331909 379.45419312 C36.0699092 390.59580898 35.62651701 401.73753608 35.28125 412.890625 C35.24188828 414.12622665 35.20252655 415.36182831 35.16197205 416.63487244 C34.96645974 422.79542389 34.78396807 428.95587306 34.62329102 435.11743164 C33.6512462 468.66917367 24.38146851 498.19168507 -0.2265625 522.0234375 C-9.63588526 529.92532354 -20.42099128 536.33580383 -31.16015625 542.2578125 C-33.38249894 543.39259774 -33.38249894 543.39259774 -34.25 545.5625 C-34.40230486 547.08867942 -34.50120983 548.62032218 -34.57421875 550.15234375 C-35.82020328 572.13558083 -39.03912257 593.79468418 -42.25 615.5625 C-41.28320312 615.67207031 -40.31640625 615.78164063 -39.3203125 615.89453125 C-27.17050963 617.37416071 -17.86154981 619.83751175 -7.375 626.375 C1.24002352 631.54215542 9.5323497 634.79603733 19.234375 637.28125 C24.71434334 638.72158981 30.68314009 640.49564009 34.75 644.5625 C34.625 647.0625 34.625 647.0625 33.75 649.5625 C26.88432178 653.81623542 18.37923011 652.59778175 10.75 651.5625 C10.894375 652.43132813 11.03875 653.30015625 11.1875 654.1953125 C11.373125 655.34773437 11.55875 656.50015625 11.75 657.6875 C11.935625 658.82445312 12.12125 659.96140625 12.3125 661.1328125 C13.38676563 669.55428774 13.38676563 669.55428774 11.25 672.9375 C10.5075 673.741875 10.5075 673.741875 9.75 674.5625 C5.17354901 674.04660916 2.69388915 672.27529596 -0.875 669.4375 C-5.7852861 665.61027577 -10.77236762 662.29417541 -16.16796875 659.16796875 C-18.25 657.5625 -18.25 657.5625 -19.05078125 655.36328125 C-19.11652344 654.76902344 -19.18226563 654.17476562 -19.25 653.5625 C-20.25353516 653.50642578 -20.25353516 653.50642578 -21.27734375 653.44921875 C-28.33912397 652.96579487 -35.17666915 651.96310287 -42.10913086 650.57885742 C-50.656454 648.94101671 -56.89649893 649.37196874 -64.9375 652.5625 C-73.96326235 656.0870721 -73.96326235 656.0870721 -78.25 655.5625 C-78.58 655.2325 -78.91 654.9025 -79.25 654.5625 C-78.9158239 650.5523868 -78.17732695 647.29059776 -76.6875 643.5625 C-74.82722997 638.27682889 -75.14614467 633.25754483 -75.27661133 627.71289062 C-75.30187858 624.04937815 -74.92729356 620.57016119 -74.38671875 616.94140625 C-72.69197871 604.55258569 -72.08049663 592.0470402 -71.25842285 579.57727051 C-71.03371906 576.18409929 -70.80371889 572.79128708 -70.57421875 569.3984375 C-70.12803619 562.78677183 -69.68697092 556.17478053 -69.25 549.5625 C-69.93844498 549.66959793 -70.62688995 549.77669586 -71.3361969 549.88703918 C-84.87532233 551.990082 -98.41525492 554.07047897 -111.98803711 555.94555664 C-114.2444572 556.25788385 -116.50015214 556.57514744 -118.75585938 556.89257812 C-133.25879511 558.91965019 -147.42532491 559.82936375 -162.0625 559.875 C-163.44039703 559.88092163 -163.44039703 559.88092163 -164.84613037 559.88696289 C-181.60732417 559.92046125 -197.742622 558.46625398 -214.25 555.5625 C-214.26981934 556.29210937 -214.28963867 557.02171875 -214.31005859 557.7734375 C-214.39157007 560.69163824 -214.47647349 563.60971672 -214.56408691 566.52774048 C-214.60473644 567.88560975 -214.64469274 569.24349996 -214.68395996 570.60140991 C-214.94433467 579.46935151 -215.32912189 588.32017233 -215.8671875 597.17578125 C-215.97231179 598.97069471 -216.0772927 600.76561657 -216.18212891 602.56054688 C-216.33684051 605.20071705 -216.49758453 607.83975374 -216.67840576 610.47827148 C-217.71133459 623.80496748 -217.71133459 623.80496748 -214.25 636.5625 C-213.94545898 637.25351807 -213.64091797 637.94453613 -213.32714844 638.65649414 C-212.1205476 641.26314199 -210.82127766 643.81510327 -209.50390625 646.3671875 C-208.2337877 648.93957951 -207.23821749 650.97926592 -207.296875 653.8828125 C-208.61760475 656.21032804 -209.73050552 656.68517363 -212.25 657.5625 C-214.88793945 657.05517578 -214.88793945 657.05517578 -217.86328125 656.0078125 C-218.94673828 655.64042969 -220.03019531 655.27304687 -221.14648438 654.89453125 C-222.83741211 654.29705078 -222.83741211 654.29705078 -224.5625 653.6875 C-235.81876493 649.45671494 -235.81876493 649.45671494 -247.5090332 650.57202148 C-251.27178879 651.56826892 -254.36965517 651.80653081 -258.25 651.79296875 C-259.549375 651.79103516 -260.84875 651.78910156 -262.1875 651.78710938 C-262.85523438 651.78090576 -263.52296875 651.77470215 -264.2109375 651.76831055 C-266.24491956 651.75004562 -268.27844435 651.74780145 -270.3125 651.74804688 C-276.40708992 651.72083888 -282.22095265 651.52616709 -288.25 650.5625 C-288.3428125 651.4596875 -288.3428125 651.4596875 -288.4375 652.375 C-289.62709779 655.57776327 -291.19678087 656.00679368 -294.25 657.5625 C-297.54389196 658.78452771 -300.88436914 659.80768847 -304.25 660.8125 C-305.13945312 661.09351563 -306.02890625 661.37453125 -306.9453125 661.6640625 C-307.80898438 661.92445313 -308.67265625 662.18484375 -309.5625 662.453125 C-310.34238281 662.69063477 -311.12226563 662.92814453 -311.92578125 663.17285156 C-314.6249484 663.625359 -316.61752613 663.24158507 -319.25 662.5625 C-319.745 661.0775 -319.745 661.0775 -320.25 659.5625 C-319.02734375 657.765625 -319.02734375 657.765625 -317.1875 655.8125 C-316.54425781 655.11253906 -315.90101563 654.41257812 -315.23828125 653.69140625 C-314.25408203 652.63759766 -314.25408203 652.63759766 -313.25 651.5625 C-312.11667747 650.29908305 -310.99091299 649.02881999 -309.875 647.75 C-309.15183594 646.93595703 -309.15183594 646.93595703 -308.4140625 646.10546875 C-307.03444908 644.44736512 -307.03444908 644.44736512 -306.25 641.5625 C-307.15878906 641.32466797 -307.15878906 641.32466797 -308.0859375 641.08203125 C-315.09948767 639.12902728 -322.99051543 636.82198457 -328.25 631.5625 C-327.875 628.9375 -327.875 628.9375 -327.25 626.5625 C-321.01708251 624.8779277 -314.83240433 623.80370681 -308.4375 622.9375 C-307.51646484 622.8034375 -306.59542969 622.669375 -305.64648438 622.53125 C-300.92865044 621.88415731 -296.40840055 621.51576372 -291.64453125 621.625 C-286.33712332 621.6958095 -281.80990419 620.70054948 -276.75 619.1875 C-275.10370858 618.72485073 -273.45657264 618.26519573 -271.80859375 617.80859375 C-270.63659424 617.48157471 -270.63659424 617.48157471 -269.44091797 617.14794922 C-263.74178609 615.6250477 -258.14691778 614.5625 -252.25 614.5625 C-252.09612132 605.24403974 -251.94794049 595.9255114 -251.8070364 586.60684586 C-251.74143019 582.27983896 -251.67386048 577.95288128 -251.60180664 573.62597656 C-251.53234528 569.4504176 -251.46803753 565.27480818 -251.40730476 561.09911346 C-251.38322606 559.50588855 -251.35728936 557.91269059 -251.32946587 556.31952667 C-251.29081771 554.08838616 -251.25877194 551.85724126 -251.22827148 549.62597656 C-251.19829323 547.72069183 -251.19829323 547.72069183 -251.16770935 545.7769165 C-251.2617694 542.07419894 -251.2617694 542.07419894 -252.25 538.5625 C-253.89509946 537.84425911 -255.56772313 537.18873219 -257.25 536.5625 C-259.48364681 534.96341194 -261.61852552 533.34911408 -263.75 531.625 C-264.35658447 531.13990967 -264.96316895 530.65481934 -265.58813477 530.1550293 C-267.4825067 528.63270916 -269.3672877 527.09920825 -271.25 525.5625 C-271.84538574 525.07974609 -272.44077148 524.59699219 -273.05419922 524.09960938 C-286.86756097 512.85823177 -296.46013749 501.88015397 -299.25 483.5625 C-299.52244816 478.9122933 -299.50659748 474.27421532 -299.48046875 469.6171875 C-299.47961026 468.25601223 -299.47953179 466.89483628 -299.48017883 465.53366089 C-299.47903451 461.91465738 -299.46476176 458.29582149 -299.44723511 454.67686462 C-299.43747076 452.43077311 -299.43165819 450.18470666 -299.42724609 447.93859863 C-299.38541563 426.71554565 -299.07533119 405.51296673 -298.4125824 384.29978943 C-298.22460706 378.11647555 -298.13778539 371.93599942 -298.125 365.75 C-298.12048828 364.93176758 -298.11597656 364.11353516 -298.11132812 363.27050781 C-298.12166743 359.22956366 -298.28078993 355.20654644 -298.5703125 351.17578125 C-298.62719238 350.36536377 -298.68407227 349.55494629 -298.74267578 348.7199707 C-299.36253466 346.08392984 -300.13876439 345.22621759 -302.25 343.5625 C-304.1567691 342.40735705 -304.1567691 342.40735705 -306.27734375 341.3984375 C-307.06359131 341.00342041 -307.84983887 340.60840332 -308.65991211 340.20141602 C-309.49401611 339.78432373 -310.32812012 339.36723145 -311.1875 338.9375 C-319.22740846 334.79921175 -326.31736678 330.4149779 -333.25 324.5625 C-334.24257813 323.73234375 -335.23515625 322.9021875 -336.2578125 322.046875 C-349.57976434 310.55905868 -358.91322327 296.31308967 -367.31640625 280.984375 C-375.31238086 266.19521496 -375.31238086 266.19521496 -386.25 253.5625 C-387.13437744 252.5401123 -387.13437744 252.5401123 -388.03662109 251.49707031 C-390.71455833 249.15645982 -392.0571295 249.00607748 -395.56640625 248.83984375 C-396.57767578 248.77603516 -397.58894531 248.71222656 -398.63085938 248.64648438 C-399.68080078 248.59814453 -400.73074219 248.54980469 -401.8125 248.5 C-403.89779654 248.39669173 -405.98254095 248.2813386 -408.06640625 248.15234375 C-408.98881104 248.10972412 -409.91121582 248.06710449 -410.86157227 248.02319336 C-413.62732692 247.48971906 -414.5842879 246.80082221 -416.25 244.5625 C-416.28515625 242.640625 -416.28515625 242.640625 -415.25 240.5625 C-412.74609375 238.421875 -412.74609375 238.421875 -409.6875 236.3125 C-408.16962891 235.25289063 -408.16962891 235.25289063 -406.62109375 234.171875 C-405.83863281 233.64078125 -405.05617188 233.1096875 -404.25 232.5625 C-407.04510869 229.60917761 -410.19243848 227.39419162 -413.5078125 225.0625 C-415.25 223.5625 -415.25 223.5625 -416.25 220.5625 C-414.19766315 218.3147025 -413.24332739 217.5602758 -410.25 216.5625 C-408.52204648 216.49447033 -406.79164635 216.47754355 -405.0625 216.5 C-404.16144531 216.50902344 -403.26039063 216.51804687 -402.33203125 216.52734375 C-401.30142578 216.54474609 -401.30142578 216.54474609 -400.25 216.5625 C-400.57484375 215.35013672 -400.57484375 215.35013672 -400.90625 214.11328125 C-401.1846875 213.04464844 -401.463125 211.97601563 -401.75 210.875 C-402.0284375 209.81925781 -402.306875 208.76351563 -402.59375 207.67578125 C-403.19649211 204.81634398 -403.53471894 202.4656163 -403.25 199.5625 C-401.25 197.5625 -401.25 197.5625 -398.45703125 197.1875 C-394.446093 197.65650131 -392.95350861 198.91734875 -389.9375 201.5625 C-388.51244141 202.78066406 -388.51244141 202.78066406 -387.05859375 204.0234375 C-385.26965339 205.6406993 -383.5080748 207.2891399 -381.78515625 208.9765625 C-377.51088268 213.3017574 -377.51088268 213.3017574 -371.875 214.9375 C-367.60031902 213.31606929 -363.79966974 211.21523587 -359.8984375 208.83984375 C-357.05979763 207.47076523 -355.35748985 207.2190406 -352.25 207.5625 C-351.92 207.8925 -351.59 208.2225 -351.25 208.5625 C-351.44730518 214.38300295 -352.67535129 218.89395015 -354.8125 224.3125 C-357.08381625 230.3259562 -357.68684754 235.23321661 -357.328125 241.625 C-357.25 244.5625 -357.25 244.5625 -358.02734375 247.47265625 C-358.35860914 252.06968993 -356.2329841 254.40749985 -353.5625 258 C-353.06717773 258.69158203 -352.57185547 259.38316406 -352.06152344 260.09570312 C-343.33688265 272.14063041 -334.0322822 284.2817193 -323.25 294.5625 C-322.57710938 295.23023438 -321.90421875 295.89796875 -321.2109375 296.5859375 C-316.46057698 301.1196692 -311.61321627 304.80569685 -305.9375 308.0625 C-305.05783569 308.56970581 -305.05783569 308.56970581 -304.16040039 309.0871582 C-300.85620862 310.9101443 -297.94482698 311.91303248 -294.25 312.5625 C-294.26196411 311.86003143 -294.27392822 311.15756287 -294.28625488 310.43380737 C-294.36217971 302.38585769 -293.89116522 294.4621476 -293.21875 286.4453125 C-293.10591516 285.06149835 -292.99340722 283.67765751 -292.88119507 282.29379272 C-292.57534241 278.54284567 -292.26245369 274.79251822 -291.94747162 271.04232788 C-291.74860093 268.67081623 -291.55137127 266.29917306 -291.35455322 263.92749023 C-289.16287534 237.55137257 -286.81391218 211.18964887 -284.38052368 184.83480072 C-284.12891706 182.10499806 -283.87885462 179.37505783 -283.62915039 176.64508057 C-277.95544947 114.73129308 -277.95544947 114.73129308 -273.125 90.875 C-272.98304199 90.15931854 -272.84108398 89.44363708 -272.69482422 88.70626831 C-253.18722305 -9.25495057 -253.18722305 -9.25495057 -213 -36.125 C-154.56073579 -71.76880654 -48.73512784 -42.22247562 0 0 Z M-226.25 -16.4375 C-226.90871094 -15.80328125 -227.56742188 -15.1690625 -228.24609375 -14.515625 C-250.41479784 8.62583978 -256.44921766 48.05839098 -263.125 78.1875 C-263.38667969 79.35555176 -263.64835937 80.52360352 -263.91796875 81.72705078 C-268.58035005 103.52966076 -271.10262282 125.66827365 -273.29155731 147.83292007 C-273.50370067 149.97486451 -273.71847294 152.11653157 -273.93389893 154.25814819 C-276.73119168 182.10913547 -279.20169909 209.98933603 -281.625 237.875 C-281.71290298 238.88523979 -281.80080597 239.89547958 -281.89137268 240.9363327 C-282.40220894 246.81094968 -282.9099985 252.68581807 -283.41350937 258.56106758 C-283.56707243 260.35190813 -283.72113702 262.14270576 -283.87576675 263.93345451 C-285.75931552 285.15436766 -285.75931552 285.15436766 -286.4375 306.4375 C-286.44974609 307.20707031 -286.46199219 307.97664063 -286.47460938 308.76953125 C-286.47970366 310.70196503 -286.3744827 312.6340731 -286.25 314.5625 C-285.59 315.2225 -284.93 315.8825 -284.25 316.5625 C-284.25 317.5525 -284.25 318.5425 -284.25 319.5625 C-288.06420267 321.46960134 -291.76832631 320.94382997 -295.76953125 319.9140625 C-306.54862129 316.30561176 -315.56865282 309.75907925 -324.25 302.5625 C-325.04019531 301.91925781 -325.83039063 301.27601563 -326.64453125 300.61328125 C-333.30850683 294.93578395 -338.46397437 288.53305128 -343.70800781 281.58691406 C-345.36422775 279.41253539 -347.04953393 277.26331304 -348.7421875 275.1171875 C-352.28203058 270.62709575 -355.77769156 266.10496933 -359.25 261.5625 C-359.75499023 260.90701172 -360.25998047 260.25152344 -360.78027344 259.57617188 C-362.12504531 257.81557634 -363.44205518 256.03804673 -364.75 254.25 C-365.84828125 252.77080078 -365.84828125 252.77080078 -366.96875 251.26171875 C-368.25 248.5625 -368.25 248.5625 -367.53125 245.76953125 C-366.25 243.5625 -366.25 243.5625 -365.25 242.5625 C-364.947789 238.83523098 -365.56927811 236.82507778 -367.25 233.5625 C-367.4665625 232.0465625 -367.4665625 232.0465625 -367.6875 230.5 C-368.30151573 227.29347339 -368.60556711 226.38624682 -371.25 224.5625 C-372.24 224.2325 -373.23 223.9025 -374.25 223.5625 C-377.25 222.5625 -377.25 222.5625 -378.75 220.875 C-380.29409629 219.2332477 -380.29409629 219.2332477 -383.25 219.5625 C-386.29658475 220.32957625 -386.29658475 220.32957625 -388.125 222.4375 C-390.28688881 228.44274669 -390.34311527 234.94038519 -387.6875 240.8125 C-384.75346258 245.88984135 -380.56274652 249.89602389 -375.83251953 253.30444336 C-372.96673943 255.81017224 -371.71757188 257.92680368 -370.05078125 261.33203125 C-369.48641357 262.46125 -368.9220459 263.59046875 -368.34057617 264.75390625 C-368.05040619 265.34574707 -367.76023621 265.93758789 -367.46127319 266.54736328 C-358.35192478 285.07103507 -347.73077457 302.57986491 -332.25 316.5625 C-331.33605469 317.39265625 -330.42210937 318.2228125 -329.48046875 319.078125 C-319.57134804 327.6268672 -308.12771679 332.99346956 -296.34448242 338.52197266 C-294.25 339.5625 -294.25 339.5625 -293.25 340.5625 C-293.15639035 342.06711544 -293.13255527 343.57612919 -293.13647461 345.08364868 C-293.13658035 346.55040039 -293.13658035 346.55040039 -293.13668823 348.04678345 C-293.14443771 349.67032242 -293.14443771 349.67032242 -293.15234375 351.32666016 C-293.15453415 353.0271048 -293.15453415 353.0271048 -293.1567688 354.76190186 C-293.1605882 357.23751887 -293.16671863 359.71313312 -293.17483521 362.18873978 C-293.18758208 366.1269205 -293.19411244 370.06506754 -293.19897461 374.00326538 C-293.21103526 383.10392855 -293.23284278 392.20456351 -293.25520325 401.3052063 C-293.27552108 409.58852806 -293.29360186 417.87183858 -293.30341816 426.15518034 C-293.30909623 430.66562625 -293.32262843 435.17600895 -293.33764648 439.68643188 C-293.36190348 450.91613191 -293.29287372 462.13085905 -292.8515625 473.35302734 C-292.80171959 474.73642776 -292.80171959 474.73642776 -292.75086975 476.14777565 C-292.19839902 488.2634366 -289.16665707 500.67110528 -280.31152344 509.49389648 C-274.78634184 514.34135442 -269.08683948 518.86724665 -263.1875 523.25 C-262.34123047 523.88744141 -261.49496094 524.52488281 -260.62304688 525.18164062 C-256.19235211 528.73538186 -256.19235211 528.73538186 -251.19226074 531.27024841 C-248.47567803 532.38643988 -247.09531707 533.24966528 -245.25 535.5625 C-244.09679109 541.45354751 -244.3695389 547.28430473 -244.5390625 553.26171875 C-244.55907223 555.02094186 -244.57524289 556.78021247 -244.58773804 558.539505 C-244.62956328 563.16421891 -244.71768069 567.78685717 -244.81726074 572.41064453 C-244.96796033 579.82136845 -245.04370622 587.23334752 -245.12824631 594.64505959 C-245.16372235 597.23686842 -245.21596522 599.82790647 -245.27139282 602.4193573 C-245.29782102 604.00051558 -245.32406604 605.58167694 -245.35009766 607.1628418 C-245.36985657 607.88650436 -245.38961548 608.61016693 -245.40997314 609.35575867 C-245.43314603 611.09200346 -245.35093423 612.82903663 -245.25 614.5625 C-244.59 615.2225 -243.93 615.8825 -243.25 616.5625 C-243.4375 619.0625 -243.4375 619.0625 -244.25 621.5625 C-247.25 623.5625 -247.25 623.5625 -249.4375 623.1875 C-250.365625 622.98125 -251.29375 622.775 -252.25 622.5625 C-259.439608 622.11522024 -265.85032397 623.60580275 -272.8125 625.3125 C-274.45895508 625.69148437 -274.45895508 625.69148437 -276.13867188 626.078125 C-285.44157189 628.2558646 -285.44157189 628.2558646 -293.25 633.5625 C-293.75095023 636.43556228 -293.75095023 636.43556228 -293.25 639.5625 C-287.43350866 645.89221116 -278.03570657 644.98492004 -269.99804688 645.38330078 C-255.03380074 645.96741714 -240.6202395 642.36086568 -228.25 633.5625 C-224.83768033 630.07591073 -224.70582349 626.55641727 -224.51391602 621.90405273 C-224.47113525 621.13775543 -224.42835449 620.37145813 -224.38427734 619.5819397 C-224.29319862 617.92187819 -224.2083707 616.26146448 -224.12909126 614.60079765 C-224.00281297 611.97334601 -223.85850786 609.34744475 -223.70921326 606.72120667 C-223.28848092 599.25595999 -222.90354005 591.78893158 -222.52319336 584.3215332 C-222.28916841 579.75131093 -222.03676666 575.18238806 -221.77360344 570.61375618 C-221.6304799 568.02456209 -221.50939639 565.43490498 -221.38856506 562.84458923 C-221.29872662 561.26017579 -221.20775897 559.67582583 -221.11547852 558.09155273 C-221.08781906 557.3699144 -221.06015961 556.64827606 -221.03166199 555.9047699 C-220.82175391 552.68549482 -220.62884662 550.95755191 -218.3558197 548.58729553 C-215.49156142 547.19340645 -213.90812877 547.59055127 -210.8125 548.25 C-209.7503125 548.45882812 -208.688125 548.66765625 -207.59375 548.8828125 C-206.4903125 549.10710938 -205.386875 549.33140625 -204.25 549.5625 C-202.10672795 549.93185028 -199.96079267 550.28607033 -197.8125 550.625 C-196.86503906 550.78097656 -195.91757812 550.93695312 -194.94140625 551.09765625 C-183.46772915 552.54248966 -171.98653659 552.83819739 -160.4375 552.875 C-159.6111908 552.87795074 -158.78488159 552.88090149 -157.93353271 552.88394165 C-143.76961516 552.89531079 -130.16234206 551.6606723 -116.1484375 549.6484375 C-106.2508142 548.22807239 -96.30885207 547.379717 -86.35009766 546.5144043 C-84.45203369 546.34678589 -84.45203369 546.34678589 -82.515625 546.17578125 C-81.39961914 546.08079346 -80.28361328 545.98580566 -79.13378906 545.88793945 C-76.73470631 545.61719976 -74.57342774 545.18147769 -72.25 544.5625 C-69.24755653 544.43822668 -66.25402624 544.51832314 -63.25 544.5625 C-63.12830227 554.22699432 -63.4761709 563.75303216 -64.16015625 573.39453125 C-64.25286787 574.76539401 -64.34493045 576.1363008 -64.43638611 577.50724792 C-64.82061792 583.25082677 -65.21594882 588.99361857 -65.61645508 594.73608398 C-65.86310109 598.27904766 -66.10190579 601.82247355 -66.33614922 605.36627769 C-66.46921912 607.34346153 -66.61120845 609.32003869 -66.75343323 611.29658508 C-67.85226081 623.82820941 -67.85226081 623.82820941 -64.25 635.5625 C-59.29594576 639.53992033 -54.39230496 640.8394045 -48.25 642.1875 C-47.31518799 642.39914795 -46.38037598 642.6107959 -45.41723633 642.82885742 C-29.97052268 646.25126285 -13.76566101 648.995546 1.75 644.5625 C1.22874155 640.58679997 -0.48427566 639.13240545 -3.5625 636.6875 C-15.77311226 627.38665066 -28.7775948 623.51802882 -44.04296875 622.96875 C-46.81590483 622.45833345 -47.57435548 621.81391132 -49.25 619.5625 C-49.9397214 610.04415725 -47.23221816 599.78955782 -45.66766357 590.39492798 C-43.38319682 576.61184501 -41.53246222 563.19117869 -41.65234375 549.17895508 C-41.64293415 542.17056559 -41.64293415 542.17056559 -39.6875 539.14453125 C-36.49821516 537.07456272 -33.23272744 535.21415383 -29.875 533.4375 C-3.51670384 518.99257506 13.38054486 498.60603615 23.125 470.125 C24.45338877 465.27749165 25.25117099 460.47032997 25.7890625 455.48168945 C25.87381836 454.7028732 25.95857422 453.92405695 26.04589844 453.12164021 C26.93421996 444.47923603 27.31091496 435.82336753 27.64111328 427.14455223 C27.75303019 424.21361259 27.87352868 421.28312803 27.99609375 418.35261536 C28.34230905 410.03656107 28.67247718 401.71988495 29 393.40307617 C29.20235952 388.2791849 29.41334279 383.15570462 29.62939453 378.03237343 C29.74810142 375.15154432 29.8565629 372.27044283 29.96484375 369.38920593 C30.03850174 367.6281808 30.11269139 365.8671778 30.1875 364.10620117 C30.21457031 363.31088989 30.24164062 362.51557861 30.26953125 361.69616699 C30.45638876 357.58089427 30.94325139 354.27607911 32.75 350.5625 C33.11996094 349.71171875 33.48992187 348.8609375 33.87109375 347.984375 C36.57476561 344.49939256 39.80216108 343.45299482 43.8125 341.8125 C67.15738766 331.45171836 81.81293113 303.58413677 90.75 280.5625 C93.01173778 273.70282616 94.44175233 266.65781969 95.75 259.5625 C98.75 258.5625 98.75 258.5625 100.75 259.5625 C104.12306618 260.14664702 104.12306618 260.14664702 107.75 259.5625 C111.96792874 255.71949826 113.79836282 252.27232308 114.75 246.5625 C114.84627138 238.99316241 113.23381652 234.29516056 108 228.6875 C104.6046448 226.9898224 101.41667141 226.93129351 97.75 227.5625 C92.00642178 230.4905987 88.01699656 234.74055311 85.375 240.625 C84.48161724 244.82389898 85.41771785 247.56565355 86.75 251.5625 C86.2912844 257.86983945 86.2912844 257.86983945 84.3671875 260.33203125 C82.24530328 263.25859138 81.2739087 266.42548935 80.125 269.8125 C75.73807504 282.06621987 69.42482313 293.79614283 60.75 303.5625 C60.15574219 304.26117188 59.56148437 304.95984375 58.94921875 305.6796875 C54.06109377 311.0139132 48.45531722 315.07748287 42.5 319.125 C41.71906982 319.66229736 40.93813965 320.19959473 40.13354492 320.75317383 C39.38306885 321.24841553 38.63259277 321.74365723 37.859375 322.25390625 C37.18874023 322.69935791 36.51810547 323.14480957 35.82714844 323.60375977 C33.33278509 324.75507205 31.46619623 324.73721397 28.75 324.5625 C29.52613711 282.89718829 29.52613711 282.89718829 31.08935547 262.21142578 C32.93006817 235.67941378 31.60790801 208.87366128 30.875 182.3125 C30.82905413 180.6262011 30.78313561 178.93990145 30.73724365 177.25360107 C31.96267984 100.40582583 31.96267984 100.40582583 12.75 27.5625 C12.05777344 26.07169922 12.05777344 26.07169922 11.3515625 24.55078125 C7.47421415 16.69522867 1.88016478 10.69266478 -4.25 4.5625 C-5.34828125 3.46421875 -5.34828125 3.46421875 -6.46875 2.34375 C-21.38473327 -11.68172681 -40.87953234 -20.04368516 -60 -26.5625 C-61.50504948 -27.08243549 -63.01001268 -27.60262079 -64.51489258 -28.12304688 C-68.75297928 -29.58213784 -73.00000062 -31.01355309 -77.25 -32.4375 C-78.28366699 -32.78651367 -79.31733398 -33.13552734 -80.38232422 -33.49511719 C-101.70079838 -40.60768296 -122.64941748 -43.09810188 -145.08691406 -42.90405273 C-148.77453912 -42.87480537 -152.46074298 -42.88356135 -156.1484375 -42.89648438 C-184.61773527 -42.87138255 -205.62229292 -36.73872539 -226.25 -16.4375 Z M-393.25 209.5625 C-392.92 211.5425 -392.59 213.5225 -392.25 215.5625 C-390.93 215.2325 -389.61 214.9025 -388.25 214.5625 C-389.04117904 212.56266466 -389.04117904 212.56266466 -390.25 210.5625 C-391.24 210.2325 -392.23 209.9025 -393.25 209.5625 Z M113.75 213.5625 C111.5245251 216.95452963 111.5245251 216.95452963 109.75 220.5625 C110.12631112 222.98468117 110.12631112 222.98468117 111.75 224.5625 C112.74 224.8925 113.73 225.2225 114.75 225.5625 C116.01237731 223.03774538 115.84856404 221.25049534 115.8125 218.4375 C115.80347656 217.52742188 115.79445313 216.61734375 115.78515625 215.6796875 C115.77355469 214.98101562 115.76195312 214.28234375 115.75 213.5625 C115.09 213.5625 114.43 213.5625 113.75 213.5625 Z M-365.25 219.5625 C-364.92 220.8825 -364.59 222.2025 -364.25 223.5625 C-363.26 223.2325 -362.27 222.9025 -361.25 222.5625 C-360.51676204 220.54741642 -360.51676204 220.54741642 -360.25 218.5625 C-363.1754644 218.3388932 -363.1754644 218.3388932 -365.25 219.5625 Z M77.75 219.5625 C78.03482368 220.98055831 78.32818144 222.39690379 78.625 223.8125 C78.78742188 224.60140625 78.94984375 225.3903125 79.1171875 226.203125 C79.74150075 228.53081144 80.59838542 230.45281952 81.75 232.5625 C85.10620271 231.17372646 86.82298728 229.64572035 88.75 226.5625 C88.75 225.9025 88.75 225.2425 88.75 224.5625 C87.29462432 223.72401196 85.83559627 222.89186066 84.375 222.0625 C83.56289063 221.5984375 82.75078125 221.134375 81.9140625 220.65625 C79.85663126 219.41214141 79.85663126 219.41214141 77.75 219.5625 Z M120.75 234.5625 C121.08 235.8825 121.41 237.2025 121.75 238.5625 C122.74 237.5725 123.73 236.5825 124.75 235.5625 C123.43 235.2325 122.11 234.9025 120.75 234.5625 Z M-399.875 239.0625 C-400.32875 239.5575 -400.7825 240.0525 -401.25 240.5625 C-399.27 240.5625 -397.29 240.5625 -395.25 240.5625 C-395.58 239.5725 -395.91 238.5825 -396.25 237.5625 C-398.37364481 237.33640663 -398.37364481 237.33640663 -399.875 239.0625 Z M-313.25 631.5625 C-309.55827405 635.10040403 -306.15609405 635.15365883 -301.25 635.5625 C-300.92 633.5825 -300.59 631.6025 -300.25 629.5625 C-305.17127034 629.39567728 -308.75343896 629.31421948 -313.25 631.5625 Z M-230.25 642.5625 C-230.25 643.2225 -230.25 643.8825 -230.25 644.5625 C-224.31 646.0475 -224.31 646.0475 -218.25 647.5625 C-218.7864399 641.81327841 -218.7864399 641.81327841 -221.25 638.5625 C-225.2833534 638.5625 -227.08517538 640.17129918 -230.25 642.5625 Z M-69.25 641.5625 C-69.58 643.2125 -69.91 644.8625 -70.25 646.5625 C-68.27 646.2325 -66.29 645.9025 -64.25 645.5625 C-64.58 644.5725 -64.91 643.5825 -65.25 642.5625 C-67.26508358 641.82926204 -67.26508358 641.82926204 -69.25 641.5625 Z M11.75 642.5625 C11.75 643.2225 11.75 643.8825 11.75 644.5625 C13.07 644.2325 14.39 643.9025 15.75 643.5625 C14.43 643.2325 13.11 642.9025 11.75 642.5625 Z M-298.25 644.5625 C-299.42262904 645.68128383 -300.58795138 646.80773051 -301.75 647.9375 C-302.3996875 648.56398438 -303.049375 649.19046875 -303.71875 649.8359375 C-305.47117431 651.42725907 -305.47117431 651.42725907 -305.25 653.5625 C-303.80989519 653.30587755 -302.3729313 653.03159179 -300.9375 652.75 C-300.13699219 652.59917969 -299.33648437 652.44835937 -298.51171875 652.29296875 C-296.01554413 651.48677764 -294.92577894 650.54197998 -293.25 648.5625 C-294.9 647.2425 -296.55 645.9225 -298.25 644.5625 Z M-8.25 654.5625 C-6.6550992 655.76241599 -5.04873853 656.94711318 -3.4375 658.125 C-2.54417969 658.78628906 -1.65085937 659.44757812 -0.73046875 660.12890625 C0.49736328 660.83853516 0.49736328 660.83853516 1.75 661.5625 C2.74 661.2325 3.73 660.9025 4.75 660.5625 C4.56535634 656.22065798 4.56535634 656.22065798 2.75 652.5625 C-3.12646031 652.09918563 -3.12646031 652.09918563 -8.25 654.5625 Z " transform="translate(500.25,114.4375)" style="fill: #FFFFFF;"/></svg>